<mxfile host="app.diagrams.net" modified="2023-06-13T13:03:39.457Z" agent="Mozilla/5.0 (Windows NT 10.0; Win64; x64) AppleWebKit/537.36 (KHTML, like Gecko) Chrome/114.0.0.0 Safari/537.36" etag="b19raf8A84ABXXdIicCV" version="21.3.8" type="google">
  <diagram name="Сторінка-1" id="BVJz-ND1Tnt4zbQP27MB">
    <mxGraphModel dx="1434" dy="699" grid="1" gridSize="10" guides="1" tooltips="1" connect="1" arrows="1" fold="1" page="1" pageScale="1" pageWidth="827" pageHeight="1169" math="0" shadow="0">
      <root>
        <mxCell id="0" />
        <mxCell id="1" parent="0" />
        <mxCell id="8BrBbnb2okrK8iVqPj1f-2" value="Oscillator" style="ellipse;whiteSpace=wrap;html=1;aspect=fixed;" vertex="1" parent="1">
          <mxGeometry x="290" y="770" width="80" height="80" as="geometry" />
        </mxCell>
        <mxCell id="8BrBbnb2okrK8iVqPj1f-3" value="" style="endArrow=classic;html=1;rounded=0;exitX=0.5;exitY=0;exitDx=0;exitDy=0;" edge="1" parent="1" source="8BrBbnb2okrK8iVqPj1f-2">
          <mxGeometry width="50" height="50" relative="1" as="geometry">
            <mxPoint x="390" y="810" as="sourcePoint" />
            <mxPoint x="330" y="680" as="targetPoint" />
          </mxGeometry>
        </mxCell>
        <mxCell id="8BrBbnb2okrK8iVqPj1f-4" value="sin(wct)" style="text;html=1;strokeColor=none;fillColor=none;align=center;verticalAlign=middle;whiteSpace=wrap;rounded=0;" vertex="1" parent="1">
          <mxGeometry x="360" y="750" width="60" height="30" as="geometry" />
        </mxCell>
        <mxCell id="8BrBbnb2okrK8iVqPj1f-8" value="Signal" style="ellipse;whiteSpace=wrap;html=1;aspect=fixed;" vertex="1" parent="1">
          <mxGeometry x="70" y="600" width="80" height="80" as="geometry" />
        </mxCell>
        <mxCell id="8BrBbnb2okrK8iVqPj1f-9" value="" style="endArrow=classic;html=1;rounded=0;exitX=1;exitY=0.5;exitDx=0;exitDy=0;entryX=0;entryY=0.5;entryDx=0;entryDy=0;" edge="1" parent="1" source="8BrBbnb2okrK8iVqPj1f-8" target="8BrBbnb2okrK8iVqPj1f-5">
          <mxGeometry width="50" height="50" relative="1" as="geometry">
            <mxPoint x="390" y="710" as="sourcePoint" />
            <mxPoint x="440" y="660" as="targetPoint" />
          </mxGeometry>
        </mxCell>
        <mxCell id="8BrBbnb2okrK8iVqPj1f-10" value="" style="endArrow=none;html=1;rounded=0;" edge="1" parent="1">
          <mxGeometry width="50" height="50" relative="1" as="geometry">
            <mxPoint x="80" y="580" as="sourcePoint" />
            <mxPoint x="120" y="580" as="targetPoint" />
          </mxGeometry>
        </mxCell>
        <mxCell id="8BrBbnb2okrK8iVqPj1f-11" value="" style="endArrow=none;html=1;rounded=0;" edge="1" parent="1">
          <mxGeometry width="50" height="50" relative="1" as="geometry">
            <mxPoint x="120" y="580" as="sourcePoint" />
            <mxPoint x="120" y="550" as="targetPoint" />
          </mxGeometry>
        </mxCell>
        <mxCell id="8BrBbnb2okrK8iVqPj1f-12" value="" style="endArrow=none;html=1;rounded=0;" edge="1" parent="1">
          <mxGeometry width="50" height="50" relative="1" as="geometry">
            <mxPoint x="120" y="550" as="sourcePoint" />
            <mxPoint x="160" y="550" as="targetPoint" />
          </mxGeometry>
        </mxCell>
        <mxCell id="8BrBbnb2okrK8iVqPj1f-13" value="" style="endArrow=none;html=1;rounded=0;" edge="1" parent="1">
          <mxGeometry width="50" height="50" relative="1" as="geometry">
            <mxPoint x="160" y="550" as="sourcePoint" />
            <mxPoint x="160" y="580" as="targetPoint" />
          </mxGeometry>
        </mxCell>
        <mxCell id="8BrBbnb2okrK8iVqPj1f-14" value="" style="endArrow=none;html=1;rounded=0;" edge="1" parent="1">
          <mxGeometry width="50" height="50" relative="1" as="geometry">
            <mxPoint x="160" y="580" as="sourcePoint" />
            <mxPoint x="190" y="580" as="targetPoint" />
          </mxGeometry>
        </mxCell>
        <mxCell id="8BrBbnb2okrK8iVqPj1f-15" value="" style="endArrow=classic;html=1;rounded=0;exitX=1;exitY=0.5;exitDx=0;exitDy=0;entryX=0;entryY=0.5;entryDx=0;entryDy=0;" edge="1" parent="1" source="8BrBbnb2okrK8iVqPj1f-5" target="8BrBbnb2okrK8iVqPj1f-22">
          <mxGeometry width="50" height="50" relative="1" as="geometry">
            <mxPoint x="390" y="610" as="sourcePoint" />
            <mxPoint x="450" y="640" as="targetPoint" />
          </mxGeometry>
        </mxCell>
        <mxCell id="8BrBbnb2okrK8iVqPj1f-16" value="Intermediate frequency" style="text;html=1;strokeColor=none;fillColor=none;align=center;verticalAlign=middle;whiteSpace=wrap;rounded=0;" vertex="1" parent="1">
          <mxGeometry x="310" y="555" width="110" height="30" as="geometry" />
        </mxCell>
        <mxCell id="8BrBbnb2okrK8iVqPj1f-17" value="Oscillator" style="ellipse;whiteSpace=wrap;html=1;aspect=fixed;" vertex="1" parent="1">
          <mxGeometry x="500" y="770" width="80" height="80" as="geometry" />
        </mxCell>
        <mxCell id="8BrBbnb2okrK8iVqPj1f-19" value="sin(wRt)" style="text;html=1;strokeColor=none;fillColor=none;align=center;verticalAlign=middle;whiteSpace=wrap;rounded=0;" vertex="1" parent="1">
          <mxGeometry x="590" y="750" width="60" height="30" as="geometry" />
        </mxCell>
        <mxCell id="8BrBbnb2okrK8iVqPj1f-20" value="" style="group" vertex="1" connectable="0" parent="1">
          <mxGeometry x="290" y="600" width="80" height="80" as="geometry" />
        </mxCell>
        <mxCell id="8BrBbnb2okrK8iVqPj1f-5" value="" style="ellipse;whiteSpace=wrap;html=1;aspect=fixed;" vertex="1" parent="8BrBbnb2okrK8iVqPj1f-20">
          <mxGeometry width="80" height="80" as="geometry" />
        </mxCell>
        <mxCell id="8BrBbnb2okrK8iVqPj1f-6" value="" style="endArrow=none;html=1;rounded=0;exitX=0;exitY=0;exitDx=0;exitDy=0;entryX=1;entryY=1;entryDx=0;entryDy=0;" edge="1" parent="8BrBbnb2okrK8iVqPj1f-20" source="8BrBbnb2okrK8iVqPj1f-5" target="8BrBbnb2okrK8iVqPj1f-5">
          <mxGeometry width="50" height="50" relative="1" as="geometry">
            <mxPoint x="100" y="210" as="sourcePoint" />
            <mxPoint x="150" y="160" as="targetPoint" />
          </mxGeometry>
        </mxCell>
        <mxCell id="8BrBbnb2okrK8iVqPj1f-7" value="" style="endArrow=none;html=1;rounded=0;entryX=1;entryY=0;entryDx=0;entryDy=0;exitX=0;exitY=1;exitDx=0;exitDy=0;" edge="1" parent="8BrBbnb2okrK8iVqPj1f-20" source="8BrBbnb2okrK8iVqPj1f-5" target="8BrBbnb2okrK8iVqPj1f-5">
          <mxGeometry width="50" height="50" relative="1" as="geometry">
            <mxPoint x="100" y="210" as="sourcePoint" />
            <mxPoint x="150" y="160" as="targetPoint" />
          </mxGeometry>
        </mxCell>
        <mxCell id="8BrBbnb2okrK8iVqPj1f-21" value="" style="group" vertex="1" connectable="0" parent="1">
          <mxGeometry x="500" y="600" width="80" height="80" as="geometry" />
        </mxCell>
        <mxCell id="8BrBbnb2okrK8iVqPj1f-22" value="" style="ellipse;whiteSpace=wrap;html=1;aspect=fixed;" vertex="1" parent="8BrBbnb2okrK8iVqPj1f-21">
          <mxGeometry width="80" height="80" as="geometry" />
        </mxCell>
        <mxCell id="8BrBbnb2okrK8iVqPj1f-23" value="" style="endArrow=none;html=1;rounded=0;exitX=0;exitY=0;exitDx=0;exitDy=0;entryX=1;entryY=1;entryDx=0;entryDy=0;" edge="1" parent="8BrBbnb2okrK8iVqPj1f-21" source="8BrBbnb2okrK8iVqPj1f-22" target="8BrBbnb2okrK8iVqPj1f-22">
          <mxGeometry width="50" height="50" relative="1" as="geometry">
            <mxPoint x="100" y="210" as="sourcePoint" />
            <mxPoint x="150" y="160" as="targetPoint" />
          </mxGeometry>
        </mxCell>
        <mxCell id="8BrBbnb2okrK8iVqPj1f-24" value="" style="endArrow=none;html=1;rounded=0;entryX=1;entryY=0;entryDx=0;entryDy=0;exitX=0;exitY=1;exitDx=0;exitDy=0;" edge="1" parent="8BrBbnb2okrK8iVqPj1f-21" source="8BrBbnb2okrK8iVqPj1f-22" target="8BrBbnb2okrK8iVqPj1f-22">
          <mxGeometry width="50" height="50" relative="1" as="geometry">
            <mxPoint x="100" y="210" as="sourcePoint" />
            <mxPoint x="150" y="160" as="targetPoint" />
          </mxGeometry>
        </mxCell>
        <mxCell id="8BrBbnb2okrK8iVqPj1f-25" value="Radio Frequency" style="text;html=1;strokeColor=none;fillColor=none;align=center;verticalAlign=middle;whiteSpace=wrap;rounded=0;" vertex="1" parent="1">
          <mxGeometry x="520" y="555" width="60" height="30" as="geometry" />
        </mxCell>
        <mxCell id="8BrBbnb2okrK8iVqPj1f-26" value="" style="endArrow=classic;html=1;rounded=0;exitX=0.5;exitY=0;exitDx=0;exitDy=0;entryX=0.5;entryY=1;entryDx=0;entryDy=0;" edge="1" parent="1" source="8BrBbnb2okrK8iVqPj1f-17" target="8BrBbnb2okrK8iVqPj1f-22">
          <mxGeometry width="50" height="50" relative="1" as="geometry">
            <mxPoint x="400" y="610" as="sourcePoint" />
            <mxPoint x="450" y="560" as="targetPoint" />
          </mxGeometry>
        </mxCell>
        <mxCell id="8BrBbnb2okrK8iVqPj1f-27" value="" style="endArrow=classic;html=1;rounded=0;exitX=1;exitY=0.5;exitDx=0;exitDy=0;" edge="1" parent="1" source="8BrBbnb2okrK8iVqPj1f-22">
          <mxGeometry width="50" height="50" relative="1" as="geometry">
            <mxPoint x="400" y="610" as="sourcePoint" />
            <mxPoint x="650" y="640" as="targetPoint" />
          </mxGeometry>
        </mxCell>
        <mxCell id="8BrBbnb2okrK8iVqPj1f-28" value="Band Pass filter" style="rounded=0;whiteSpace=wrap;html=1;" vertex="1" parent="1">
          <mxGeometry x="650" y="610" width="120" height="60" as="geometry" />
        </mxCell>
        <mxCell id="8BrBbnb2okrK8iVqPj1f-29" value="Pulse Shaping Filter" style="rounded=0;whiteSpace=wrap;html=1;" vertex="1" parent="1">
          <mxGeometry x="850" y="610" width="120" height="60" as="geometry" />
        </mxCell>
        <mxCell id="8BrBbnb2okrK8iVqPj1f-30" value="" style="endArrow=classic;html=1;rounded=0;entryX=0;entryY=0.5;entryDx=0;entryDy=0;exitX=1;exitY=0.5;exitDx=0;exitDy=0;" edge="1" parent="1" source="8BrBbnb2okrK8iVqPj1f-28" target="8BrBbnb2okrK8iVqPj1f-29">
          <mxGeometry width="50" height="50" relative="1" as="geometry">
            <mxPoint x="400" y="610" as="sourcePoint" />
            <mxPoint x="450" y="560" as="targetPoint" />
          </mxGeometry>
        </mxCell>
        <mxCell id="8BrBbnb2okrK8iVqPj1f-31" value="" style="endArrow=classic;html=1;rounded=0;exitX=1;exitY=0.5;exitDx=0;exitDy=0;" edge="1" parent="1" source="8BrBbnb2okrK8iVqPj1f-29">
          <mxGeometry width="50" height="50" relative="1" as="geometry">
            <mxPoint x="400" y="610" as="sourcePoint" />
            <mxPoint x="1040" y="640" as="targetPoint" />
          </mxGeometry>
        </mxCell>
        <mxCell id="8BrBbnb2okrK8iVqPj1f-32" value="Amplifier" style="rounded=0;whiteSpace=wrap;html=1;" vertex="1" parent="1">
          <mxGeometry x="1040" y="610" width="120" height="60" as="geometry" />
        </mxCell>
        <mxCell id="8BrBbnb2okrK8iVqPj1f-33" value="" style="endArrow=none;html=1;rounded=0;" edge="1" parent="1">
          <mxGeometry width="50" height="50" relative="1" as="geometry">
            <mxPoint x="1240" y="460" as="sourcePoint" />
            <mxPoint x="1240" y="410" as="targetPoint" />
          </mxGeometry>
        </mxCell>
        <mxCell id="8BrBbnb2okrK8iVqPj1f-34" value="" style="endArrow=none;html=1;rounded=0;" edge="1" parent="1">
          <mxGeometry width="50" height="50" relative="1" as="geometry">
            <mxPoint x="1200" y="380" as="sourcePoint" />
            <mxPoint x="1240" y="410" as="targetPoint" />
          </mxGeometry>
        </mxCell>
        <mxCell id="8BrBbnb2okrK8iVqPj1f-35" value="" style="endArrow=none;html=1;rounded=0;" edge="1" parent="1">
          <mxGeometry width="50" height="50" relative="1" as="geometry">
            <mxPoint x="1240" y="410" as="sourcePoint" />
            <mxPoint x="1280" y="380" as="targetPoint" />
          </mxGeometry>
        </mxCell>
        <mxCell id="8BrBbnb2okrK8iVqPj1f-37" value="" style="endArrow=classic;html=1;rounded=0;exitX=1;exitY=0.5;exitDx=0;exitDy=0;" edge="1" parent="1" source="8BrBbnb2okrK8iVqPj1f-32">
          <mxGeometry width="50" height="50" relative="1" as="geometry">
            <mxPoint x="610" y="610" as="sourcePoint" />
            <mxPoint x="1240" y="640" as="targetPoint" />
          </mxGeometry>
        </mxCell>
        <mxCell id="8BrBbnb2okrK8iVqPj1f-38" value="" style="endArrow=none;html=1;rounded=0;" edge="1" parent="1">
          <mxGeometry width="50" height="50" relative="1" as="geometry">
            <mxPoint x="1240" y="640" as="sourcePoint" />
            <mxPoint x="1240" y="460" as="targetPoint" />
          </mxGeometry>
        </mxCell>
        <mxCell id="8BrBbnb2okrK8iVqPj1f-39" value="Transmitter diagram" style="rounded=0;whiteSpace=wrap;html=1;" vertex="1" parent="1">
          <mxGeometry x="570" y="270" width="260" height="60" as="geometry" />
        </mxCell>
      </root>
    </mxGraphModel>
  </diagram>
</mxfile>
